<svg xmlns="http://www.w3.org/2000/svg" xmlns:xlink="http://www.w3.org/1999/xlink" width="362" zoomAndPan="magnify" viewBox="0 0 271.5 242.249991" height="323" preserveAspectRatio="xMidYMid meet" version="1.0"><defs><g/><clipPath id="831561de19"><path d="M 56.804688 48.644531 L 214.195312 48.644531 L 214.195312 206.035156 L 56.804688 206.035156 Z M 56.804688 48.644531 " clip-rule="nonzero"/></clipPath><clipPath id="889289fb3c"><path d="M 135.5 48.644531 C 92.039062 48.644531 56.804688 83.878906 56.804688 127.339844 C 56.804688 170.804688 92.039062 206.035156 135.5 206.035156 C 178.964844 206.035156 214.195312 170.804688 214.195312 127.339844 C 214.195312 83.878906 178.964844 48.644531 135.5 48.644531 Z M 135.5 48.644531 " clip-rule="nonzero"/></clipPath><clipPath id="43c855f436"><path d="M 35.453125 174.457031 L 250.089844 174.457031 L 250.089844 216.007812 L 35.453125 216.007812 Z M 35.453125 174.457031 " clip-rule="nonzero"/></clipPath></defs><g clip-path="url(#831561de19)"><g clip-path="url(#889289fb3c)"><path fill="#000000" d="M 56.804688 48.644531 L 214.195312 48.644531 L 214.195312 206.035156 L 56.804688 206.035156 Z M 56.804688 48.644531 " fill-opacity="1" fill-rule="nonzero"/></g></g><g clip-path="url(#43c855f436)"><path fill="#ffffff" d="M 35.453125 174.457031 L 250.023438 174.457031 L 250.023438 216.007812 L 35.453125 216.007812 Z M 35.453125 174.457031 " fill-opacity="1" fill-rule="nonzero"/></g><g fill="#ffffff" fill-opacity="1"><g transform="translate(126.56552, 165.708425)"><g><path d="M 8.28125 -82.890625 L 47.484375 -82.890625 C 56.796875 -82.890625 64.191406 -81.015625 69.671875 -77.265625 C 75.160156 -73.515625 77.90625 -68.476562 77.90625 -62.15625 C 77.90625 -57.820312 76.640625 -54.015625 74.109375 -50.734375 C 71.585938 -47.460938 68.117188 -45.191406 63.703125 -43.921875 C 68.910156 -42.898438 73.050781 -40.492188 76.125 -36.703125 C 79.207031 -32.910156 80.75 -28.332031 80.75 -22.96875 C 80.75 -15.945312 77.882812 -10.363281 72.15625 -6.21875 C 66.4375 -2.070312 58.6875 0 48.90625 0 L 8.28125 0 Z M 29.25 -66.78125 L 29.25 -49.734375 L 46.296875 -49.734375 C 49.378906 -49.734375 51.828125 -50.5 53.640625 -52.03125 C 55.453125 -53.570312 56.359375 -55.6875 56.359375 -58.375 C 56.359375 -60.976562 55.453125 -63.03125 53.640625 -64.53125 C 51.828125 -66.03125 49.378906 -66.78125 46.296875 -66.78125 Z M 29.25 -34.578125 L 29.25 -16.21875 L 46.296875 -16.21875 C 50.242188 -16.21875 53.34375 -17.046875 55.59375 -18.703125 C 57.84375 -20.359375 58.96875 -22.648438 58.96875 -25.578125 C 58.96875 -28.335938 57.84375 -30.523438 55.59375 -32.140625 C 53.34375 -33.765625 50.242188 -34.578125 46.296875 -34.578125 Z M 29.25 -34.578125 "/></g></g></g><g fill="#ffffff" fill-opacity="1"><g transform="translate(69.111122, 166.004709)"><g><path d="M 65.574219 0 L 65.574219 -50.890625 L 24.015625 -50.890625 L 24.015625 -63.957031 L 65.574219 -63.957031 L 65.574219 -82.996094 L 3.234375 -82.996094 L 3.234375 -32.601562 L 44.792969 -32.601562 L 44.792969 -18.914062 L 3.234375 -18.914062 L 3.234375 0 Z M 65.574219 0 "/></g></g></g><g fill="#000000" fill-opacity="1"><g transform="translate(54.391079, 196.17035)"><g><path d="M 7.5 -15.65625 C 9.8125 -15.65625 11.84375 -15.078125 13.59375 -13.921875 L 12.109375 -10.859375 C 11.304688 -11.328125 10.4375 -11.710938 9.5 -12.015625 C 8.570312 -12.316406 7.789062 -12.46875 7.15625 -12.46875 C 6.03125 -12.46875 5.46875 -12.09375 5.46875 -11.34375 C 5.46875 -10.851562 5.742188 -10.460938 6.296875 -10.171875 C 6.859375 -9.878906 7.539062 -9.625 8.34375 -9.40625 C 9.144531 -9.195312 9.945312 -8.941406 10.75 -8.640625 C 11.5625 -8.335938 12.242188 -7.84375 12.796875 -7.15625 C 13.359375 -6.476562 13.640625 -5.625 13.640625 -4.59375 C 13.640625 -3.101562 13.054688 -1.941406 11.890625 -1.109375 C 10.722656 -0.285156 9.242188 0.125 7.453125 0.125 C 6.171875 0.125 4.898438 -0.09375 3.640625 -0.53125 C 2.390625 -0.96875 1.300781 -1.570312 0.375 -2.34375 L 1.90625 -5.375 C 2.6875 -4.695312 3.601562 -4.140625 4.65625 -3.703125 C 5.71875 -3.265625 6.664062 -3.046875 7.5 -3.046875 C 8.132812 -3.046875 8.625 -3.160156 8.96875 -3.390625 C 9.320312 -3.617188 9.5 -3.957031 9.5 -4.40625 C 9.5 -4.832031 9.296875 -5.1875 8.890625 -5.46875 C 8.492188 -5.757812 7.992188 -5.972656 7.390625 -6.109375 C 6.785156 -6.253906 6.128906 -6.441406 5.421875 -6.671875 C 4.710938 -6.910156 4.054688 -7.171875 3.453125 -7.453125 C 2.847656 -7.734375 2.34375 -8.175781 1.9375 -8.78125 C 1.53125 -9.394531 1.328125 -10.128906 1.328125 -10.984375 C 1.328125 -12.398438 1.890625 -13.53125 3.015625 -14.375 C 4.140625 -15.226562 5.632812 -15.65625 7.5 -15.65625 Z M 7.5 -15.65625 "/></g></g></g><g fill="#000000" fill-opacity="1"><g transform="translate(68.625687, 196.17035)"><g><path d="M 18.546875 0 L 15.078125 0 L 15.0625 -10.0625 L 11.34375 -1.546875 L 8.78125 -1.546875 L 5.0625 -10.0625 L 5.0625 0 L 1.546875 0 L 1.546875 -15.5 L 5.859375 -15.5 L 10.0625 -6.28125 L 14.265625 -15.5 L 18.546875 -15.5 Z M 18.546875 0 "/></g></g></g><g fill="#000000" fill-opacity="1"><g transform="translate(88.739804, 196.17035)"><g><path d="M 11.828125 -2.859375 L 5.0625 -2.859375 L 3.9375 0 L -0.109375 0 L 6.5625 -15.46875 L 10.609375 -15.46875 L 17.140625 0 L 12.9375 0 Z M 10.671875 -5.84375 L 8.46875 -11.5625 L 6.21875 -5.84375 Z M 10.671875 -5.84375 "/></g></g></g><g fill="#000000" fill-opacity="1"><g transform="translate(105.759441, 196.17035)"><g><path d="M 10.875 0 L 8.578125 -4.359375 L 5.484375 -4.359375 L 5.484375 0 L 1.546875 0 L 1.546875 -15.46875 L 8.46875 -15.46875 C 10.519531 -15.46875 12.101562 -15 13.21875 -14.0625 C 14.34375 -13.132812 14.90625 -11.804688 14.90625 -10.078125 C 14.90625 -7.691406 13.96875 -6.035156 12.09375 -5.109375 L 15.34375 0 Z M 5.484375 -7.453125 L 8.46875 -7.453125 C 9.320312 -7.453125 9.984375 -7.664062 10.453125 -8.09375 C 10.929688 -8.519531 11.171875 -9.140625 11.171875 -9.953125 C 11.171875 -10.742188 10.929688 -11.34375 10.453125 -11.75 C 9.984375 -12.164062 9.320312 -12.375 8.46875 -12.375 L 5.484375 -12.375 Z M 5.484375 -7.453125 "/></g></g></g><g fill="#000000" fill-opacity="1"><g transform="translate(121.762316, 196.17035)"><g><path d="M 13.375 -12.3125 L 8.71875 -12.3125 L 8.71875 0 L 4.78125 0 L 4.78125 -12.3125 L 0.15625 -12.3125 L 0.15625 -15.5 L 13.375 -15.5 Z M 13.375 -12.3125 "/></g></g></g><g fill="#000000" fill-opacity="1"><g transform="translate(135.267505, 196.17035)"><g><path d="M 1.546875 -15.46875 L 8.859375 -15.46875 C 10.597656 -15.46875 11.976562 -15.117188 13 -14.421875 C 14.03125 -13.722656 14.546875 -12.785156 14.546875 -11.609375 C 14.546875 -10.796875 14.3125 -10.082031 13.84375 -9.46875 C 13.375 -8.863281 12.722656 -8.441406 11.890625 -8.203125 C 12.867188 -8.015625 13.644531 -7.566406 14.21875 -6.859375 C 14.789062 -6.148438 15.078125 -5.296875 15.078125 -4.296875 C 15.078125 -2.984375 14.539062 -1.9375 13.46875 -1.15625 C 12.40625 -0.382812 10.957031 0 9.125 0 L 1.546875 0 Z M 5.46875 -12.46875 L 5.46875 -9.28125 L 8.640625 -9.28125 C 9.210938 -9.28125 9.671875 -9.421875 10.015625 -9.703125 C 10.359375 -9.992188 10.53125 -10.394531 10.53125 -10.90625 C 10.53125 -11.382812 10.359375 -11.765625 10.015625 -12.046875 C 9.671875 -12.328125 9.210938 -12.46875 8.640625 -12.46875 Z M 5.46875 -6.453125 L 5.46875 -3.03125 L 8.640625 -3.03125 C 9.378906 -3.03125 9.957031 -3.179688 10.375 -3.484375 C 10.800781 -3.796875 11.015625 -4.226562 11.015625 -4.78125 C 11.015625 -5.289062 10.800781 -5.695312 10.375 -6 C 9.957031 -6.300781 9.378906 -6.453125 8.640625 -6.453125 Z M 5.46875 -6.453125 "/></g></g></g><g fill="#000000" fill-opacity="1"><g transform="translate(151.071446, 196.17035)"><g><path d="M 10.875 0 L 8.578125 -4.359375 L 5.484375 -4.359375 L 5.484375 0 L 1.546875 0 L 1.546875 -15.46875 L 8.46875 -15.46875 C 10.519531 -15.46875 12.101562 -15 13.21875 -14.0625 C 14.34375 -13.132812 14.90625 -11.804688 14.90625 -10.078125 C 14.90625 -7.691406 13.96875 -6.035156 12.09375 -5.109375 L 15.34375 0 Z M 5.484375 -7.453125 L 8.46875 -7.453125 C 9.320312 -7.453125 9.984375 -7.664062 10.453125 -8.09375 C 10.929688 -8.519531 11.171875 -9.140625 11.171875 -9.953125 C 11.171875 -10.742188 10.929688 -11.34375 10.453125 -11.75 C 9.984375 -12.164062 9.320312 -12.375 8.46875 -12.375 L 5.484375 -12.375 Z M 5.484375 -7.453125 "/></g></g></g><g fill="#000000" fill-opacity="1"><g transform="translate(167.074322, 196.17035)"><g><path d="M 5.484375 0 L 1.546875 0 L 1.546875 -15.46875 L 5.484375 -15.46875 Z M 5.484375 0 "/></g></g></g><g fill="#000000" fill-opacity="1"><g transform="translate(174.103207, 196.17035)"><g><path d="M 13.65625 -12.375 L 5.484375 -12.375 L 5.484375 -9.3125 L 12.875 -9.3125 L 12.875 -6.21875 L 5.484375 -6.21875 L 5.484375 -3.09375 L 13.90625 -3.09375 L 13.90625 0 L 1.546875 0 L 1.546875 -15.46875 L 13.65625 -15.46875 Z M 13.65625 -12.375 "/></g></g></g><g fill="#000000" fill-opacity="1"><g transform="translate(189.000916, 196.17035)"><g><path d="M 13.015625 -12.375 L 5.484375 -12.375 L 5.484375 -8.796875 L 12.421875 -8.796875 L 12.421875 -5.703125 L 5.484375 -5.703125 L 5.484375 0 L 1.546875 0 L 1.546875 -15.46875 L 13.015625 -15.46875 Z M 13.015625 -12.375 "/></g></g></g><g fill="#000000" fill-opacity="1"><g transform="translate(202.351378, 196.17035)"><g><path d="M 7.5 -15.65625 C 9.8125 -15.65625 11.84375 -15.078125 13.59375 -13.921875 L 12.109375 -10.859375 C 11.304688 -11.328125 10.4375 -11.710938 9.5 -12.015625 C 8.570312 -12.316406 7.789062 -12.46875 7.15625 -12.46875 C 6.03125 -12.46875 5.46875 -12.09375 5.46875 -11.34375 C 5.46875 -10.851562 5.742188 -10.460938 6.296875 -10.171875 C 6.859375 -9.878906 7.539062 -9.625 8.34375 -9.40625 C 9.144531 -9.195312 9.945312 -8.941406 10.75 -8.640625 C 11.5625 -8.335938 12.242188 -7.84375 12.796875 -7.15625 C 13.359375 -6.476562 13.640625 -5.625 13.640625 -4.59375 C 13.640625 -3.101562 13.054688 -1.941406 11.890625 -1.109375 C 10.722656 -0.285156 9.242188 0.125 7.453125 0.125 C 6.171875 0.125 4.898438 -0.09375 3.640625 -0.53125 C 2.390625 -0.96875 1.300781 -1.570312 0.375 -2.34375 L 1.90625 -5.375 C 2.6875 -4.695312 3.601562 -4.140625 4.65625 -3.703125 C 5.71875 -3.265625 6.664062 -3.046875 7.5 -3.046875 C 8.132812 -3.046875 8.625 -3.160156 8.96875 -3.390625 C 9.320312 -3.617188 9.5 -3.957031 9.5 -4.40625 C 9.5 -4.832031 9.296875 -5.1875 8.890625 -5.46875 C 8.492188 -5.757812 7.992188 -5.972656 7.390625 -6.109375 C 6.785156 -6.253906 6.128906 -6.441406 5.421875 -6.671875 C 4.710938 -6.910156 4.054688 -7.171875 3.453125 -7.453125 C 2.847656 -7.734375 2.34375 -8.175781 1.9375 -8.78125 C 1.53125 -9.394531 1.328125 -10.128906 1.328125 -10.984375 C 1.328125 -12.398438 1.890625 -13.53125 3.015625 -14.375 C 4.140625 -15.226562 5.632812 -15.65625 7.5 -15.65625 Z M 7.5 -15.65625 "/></g></g></g></svg>